<svg width="62" height="61" viewBox="0 0 62 61" fill="none" xmlns="http://www.w3.org/2000/svg">
<mask id="mask0_1119_7" style="mask-type:luminance" maskUnits="userSpaceOnUse" x="0" y="0" width="62" height="61">
<path d="M10.507 0L53.4596 5.69325C57.7943 5.69325 61.5379 9.22699 61.5379 13.7423L59.1735 52.4172C59.1735 56.7362 55.627 60.4663 51.0953 60.4663L8.93078 55.5583C4.59611 55.5583 0.852539 52.0245 0.852539 47.5092L2.42878 8.04908C2.42878 3.53374 5.97533 0 10.507 0Z" fill="white"/>
</mask>
<g mask="url(#mask0_1119_7)">
<path d="M-29.6871 15.7056H80.6498L67.0547 76.7608H-43.2822L-29.6871 15.7056Z" fill="#FBA905"/>
<path d="M84.5905 29.4479L65.8727 19.6319L-8.60477 29.4479L-13.3335 -3.92638L78.2856 -9.61963L84.5905 29.4479Z" fill="#FC0400"/>
<path d="M72.7689 24.1472L69.8135 23.7546C60.7501 22.5767 51.4897 24.3435 43.6084 28.8589L40.85 30.4294C37.5005 32.3926 33.7569 33.7668 30.0134 34.7484L22.5262 36.5153C17.9945 37.4969 11.2955 38.0859 6.56675 37.4969L-7.42239 35.73C-8.99864 35.5337 -10.5749 35.3374 -12.1511 34.9448L-21.6086 32.7852C-27.7165 31.411 -33.4304 28.6625 -38.3561 24.7362L-45.0552 19.4356L-41.3116 20.2208C-39.5383 20.6135 -37.9621 21.0061 -36.1888 21.3987L-34.4155 21.9877C-31.2631 22.9693 -27.9135 23.5582 -24.367 23.7546L-3.08773 25.1288L7.35488 26.1104C12.8717 26.6994 18.1915 26.1104 23.5114 24.5398L36.9094 20.6135L41.8352 19.2392C52.0807 16.2944 63.3115 17.4724 72.7689 22.3803V24.1472Z" fill="white"/>
<path d="M46.5636 29.2515L22.7229 42.9939C22.5259 42.9939 22.5259 43.1902 22.3288 43.1902C19.9645 43.9755 17.9942 44.7607 16.0239 44.9571C10.113 45.7423 4.00503 45.7423 -2.1029 44.9571H-2.29993C-3.67915 44.9571 -5.05835 44.7607 -6.43757 44.5644L-20.2297 38.8712L-19.6386 44.9571H-43.2822V42.4049H-19.6386L-20.4267 36.319L-6.24054 42.0123C-5.05836 42.2086 -3.87617 42.4049 -2.49696 42.4049C3.41395 43.1902 9.52189 43.3865 15.6298 42.6012H15.8269C18.1912 42.4049 20.5556 41.816 22.7229 40.8344L45.5784 27.092C47.5487 25.9141 49.7161 23.5583 51.8834 23.5583L61.3408 21.9877L72.5716 22.9693C68.0399 18.6503 60.3557 22.3804 51.6864 26.3068" fill="white"/>
</g>
</svg>
