<svg width="20" height="20" viewBox="0 0 20 20" fill="none" xmlns="http://www.w3.org/2000/svg">
<mask id="mask0_1025_12" style="mask-type:luminance" maskUnits="userSpaceOnUse" x="0" y="0" width="20" height="20">
<path d="M3.12145 0.0415039L17.0087 1.8889C18.4102 1.8889 19.6206 3.03555 19.6206 4.50073L18.8561 17.0503C18.8561 18.4517 17.7095 19.6621 16.2443 19.6621L2.61183 18.0695C1.21036 18.0695 0 16.9228 0 15.4577L0.509626 2.65333C0.509626 1.18816 1.65628 0.0415039 3.12145 0.0415039Z" fill="white"/>
</mask>
<g mask="url(#mask0_1025_12)">
<path d="M-9.87401 5.1377H25.7998L21.4042 24.9494H-14.2695L-9.87401 5.1377Z" fill="#FBA905"/>
<path d="M27.0741 9.5971L21.0223 6.41194L-3.05755 9.5971L-4.58643 -1.23244L25.0355 -3.07983L27.0741 9.5971Z" fill="#FC0400"/>
<path d="M23.2512 7.87704L22.2957 7.74963C19.3653 7.36741 16.3713 7.94074 13.8232 9.40591L12.9313 9.91554C11.8484 10.5526 10.638 10.9985 9.42764 11.317L7.00693 11.8903C5.54175 12.2089 3.37584 12.4 1.84697 12.2089L-2.67596 11.6355C-3.18558 11.5718 -3.69521 11.5081 -4.20483 11.3807L-7.26259 10.68C-9.23738 10.2341 -11.0848 9.34221 -12.6774 8.06815L-14.8433 6.34816L-13.6329 6.60297C-13.0596 6.73038 -12.5499 6.85779 -11.9766 6.98519L-11.4033 7.1763C-10.384 7.49482 -9.30109 7.68593 -8.15443 7.74963L-1.27449 8.19555L2.10178 8.51407C3.88547 8.70518 5.60546 8.51407 7.32544 8.00445L11.6573 6.73038L13.2498 6.28446C16.5624 5.32891 20.1935 5.71113 23.2512 7.30371V7.87704Z" fill="white"/>
<path d="M14.7791 9.53325L7.07103 13.9925C7.00733 13.9925 7.00733 14.0562 6.94362 14.0562C6.17919 14.311 5.54215 14.5658 4.90512 14.6295C2.99403 14.8843 1.01923 14.8843 -0.955569 14.6295H-1.01927C-1.46519 14.6295 -1.91112 14.5658 -2.35704 14.5021L-6.81626 12.6547L-6.62515 14.6295H-14.2695V13.8014H-6.62515L-6.87996 11.8266L-2.29334 13.674C-1.91112 13.7377 -1.5289 13.8014 -1.08298 13.8014C0.82812 14.0562 2.80292 14.1199 4.77772 13.8651H4.84142C5.60586 13.8014 6.37029 13.6103 7.07103 13.2917L14.4606 8.83252C15.0976 8.4503 15.7984 7.68586 16.4991 7.68586L19.5569 7.17624L23.1879 7.49475C21.7228 6.09328 19.2383 7.30364 16.4354 8.57771" fill="white"/>
</g>
</svg>
