<svg width="256" height="95" viewBox="0 0 256 95" fill="none" xmlns="http://www.w3.org/2000/svg">
<path d="M223.065 94.9999H32.9347C14.7464 94.9999 0 75.4938 0 51.429C0 27.3701 14.7464 7.86401 32.9347 7.86401H223.065C241.254 7.86401 256 27.3701 256 51.429C256 75.488 241.254 94.9941 223.065 94.9941V94.9999Z" fill="#CCCCCC"/>
<path d="M223.065 87.1359H32.9347C14.7464 87.1359 0 67.6298 0 43.565C0 19.5061 14.7464 0 32.9347 0H223.065C241.254 0 256 19.5061 256 43.565C256 67.6239 241.254 87.1301 223.065 87.1301V87.1359Z" fill="#022F6F"/>
<path d="M44.5 67.4097C60.2401 67.4097 73 54.47 73 38.5082C73 22.5463 60.2401 9.60669 44.5 9.60669C28.7599 9.60669 16 22.5463 16 38.5082C16 54.47 28.7599 67.4097 44.5 67.4097Z" fill="white"/>
<mask id="mask0_723_8" style="mask-type:luminance" maskUnits="userSpaceOnUse" x="30" y="23" width="28" height="29">
<path d="M34.4583 23L53.9098 25.7302C55.8749 25.7302 57.5701 27.4225 57.5701 29.5925L56.5011 48.1377C56.5011 50.2074 54.8977 52 52.8408 52L33.7511 49.6472C31.786 49.6472 30.0908 47.9549 30.0908 45.7849L30.8034 26.8623C30.8034 24.6983 32.4068 23 34.4637 23H34.4583Z" fill="white"/>
</mask>
<g mask="url(#mask0_723_8)">
<path d="M16.2536 30.53H66.2183L60.0638 59.8072H10.0991L16.2536 30.53Z" fill="#FBA905"/>
<path d="M67.9999 37.1225L59.524 32.4111L25.8039 37.1225L23.6606 21.113L65.1494 18.3828L67.9999 37.1225Z" fill="#FC0400"/>
<path d="M62.65 34.5808L61.3111 34.3921C57.2081 33.826 53.0134 34.6752 49.4448 36.8393L48.1978 37.594C46.6807 38.5375 44.9855 39.192 43.2904 39.6638L39.9 40.5129C37.8485 40.9846 34.8144 41.2677 32.6712 40.9846L26.3385 40.1355C25.6259 40.0412 24.9133 39.9468 24.1953 39.7581L19.9141 38.7203C17.15 38.0599 14.5586 36.7449 12.329 34.858L9.29492 32.3165L10.9901 32.6939C11.7945 32.8826 12.5071 33.0713 13.3115 33.26L14.1159 33.543C15.5412 34.0147 17.0582 34.2978 18.667 34.3921L28.3036 35.0526L33.0329 35.5243C35.5325 35.8073 37.9403 35.5243 40.3481 34.7695L46.4162 32.8885L48.6458 32.228C53.2833 30.8187 58.3688 31.3789 62.6554 33.7317V34.5808H62.65Z" fill="white"/>
<path d="M50.7835 37.0282L39.9862 43.6207C39.8944 43.6207 39.8944 43.715 39.808 43.715C38.7391 44.0924 37.8429 44.4698 36.9521 44.5641C34.2744 44.9415 31.5103 44.9415 28.7461 44.5641H28.6544C28.0281 44.5641 27.4073 44.4698 26.781 44.3754L20.5348 41.6453L20.8047 44.5641H10.0991V43.3376H20.8047L20.4484 40.4188L26.8728 43.1489C27.4073 43.2433 27.9417 43.3376 28.568 43.3376C31.2457 43.715 34.0098 43.8094 36.774 43.432H36.8657C37.9347 43.3376 39.009 43.0546 39.9862 42.5828L50.3354 35.9903C51.2262 35.4242 52.2088 34.298 53.1913 34.298L57.4725 33.5432L62.558 34.0149C60.5065 31.9452 57.0244 33.7319 53.0995 35.6129" fill="white"/>
</g>
<path d="M98.6644 30.5455V48H95.0849L88.1388 37.9261H88.0281V48H83.8093V30.5455H87.44L94.3093 40.6023H94.4542V30.5455H98.6644ZM109.763 42.3494V34.9091H113.922V48H109.951V45.5625H109.814C109.525 46.3636 109.03 47 108.331 47.4716C107.638 47.9375 106.8 48.1705 105.817 48.1705C104.925 48.1705 104.141 47.9659 103.465 47.5568C102.789 47.1477 102.263 46.5767 101.888 45.8438C101.513 45.1051 101.323 44.2415 101.317 43.2528V34.9091H105.485V42.4347C105.49 43.1449 105.678 43.7045 106.047 44.1136C106.417 44.5227 106.919 44.7273 107.556 44.7273C107.971 44.7273 108.343 44.6364 108.672 44.4545C109.007 44.267 109.272 43.9972 109.465 43.6449C109.664 43.2869 109.763 42.8551 109.763 42.3494ZM116.575 48V34.9091H120.623V37.2955H120.76C120.998 36.4318 121.387 35.7898 121.927 35.3693C122.467 34.9432 123.095 34.7301 123.811 34.7301C124.004 34.7301 124.203 34.7443 124.407 34.7727C124.612 34.7955 124.802 34.8324 124.978 34.8835V38.5057C124.779 38.4375 124.518 38.3835 124.194 38.3438C123.876 38.304 123.592 38.2841 123.342 38.2841C122.848 38.2841 122.402 38.3949 122.004 38.6165C121.612 38.8324 121.302 39.1364 121.075 39.5284C120.853 39.9148 120.743 40.3693 120.743 40.892V48H116.575ZM126.676 48V34.9091H130.844V48H126.676ZM128.765 33.3835C128.179 33.3835 127.676 33.1903 127.256 32.804C126.836 32.4119 126.625 31.9403 126.625 31.3892C126.625 30.8437 126.836 30.3778 127.256 29.9915C127.676 29.5994 128.179 29.4034 128.765 29.4034C129.355 29.4034 129.858 29.5994 130.273 29.9915C130.694 30.3778 130.904 30.8437 130.904 31.3892C130.904 31.9403 130.694 32.4119 130.273 32.804C129.858 33.1903 129.355 33.3835 128.765 33.3835ZM139.608 48.2472C138.227 48.2472 137.042 47.9631 136.054 47.3949C135.071 46.8267 134.315 46.0369 133.787 45.0256C133.258 44.0085 132.994 42.8324 132.994 41.4972C132.994 40.1562 133.258 38.9801 133.787 37.9688C134.321 36.9517 135.079 36.1591 136.062 35.5909C137.051 35.0227 138.23 34.7386 139.599 34.7386C140.809 34.7386 141.863 34.9574 142.761 35.3949C143.664 35.8324 144.369 36.4517 144.875 37.2528C145.386 38.0483 145.656 38.983 145.684 40.0568H141.789C141.71 39.3864 141.483 38.8608 141.108 38.4801C140.738 38.0994 140.255 37.9091 139.659 37.9091C139.176 37.9091 138.752 38.0455 138.389 38.3182C138.025 38.5852 137.741 38.983 137.537 39.5114C137.338 40.0341 137.238 40.6818 137.238 41.4545C137.238 42.2273 137.338 42.8807 137.537 43.4148C137.741 43.9432 138.025 44.3437 138.389 44.6165C138.752 44.8835 139.176 45.017 139.659 45.017C140.045 45.017 140.386 44.9347 140.681 44.7699C140.983 44.6051 141.23 44.3636 141.423 44.0455C141.616 43.7216 141.738 43.3295 141.789 42.8693H145.684C145.645 43.9489 145.375 44.892 144.875 45.6989C144.38 46.5057 143.684 47.1335 142.787 47.5824C141.895 48.0256 140.835 48.2472 139.608 48.2472ZM153.928 48.2472C152.553 48.2472 151.371 47.9659 150.382 47.4034C149.4 46.8352 148.641 46.0455 148.107 45.0341C147.578 44.017 147.314 42.8381 147.314 41.4972C147.314 40.1506 147.578 38.9716 148.107 37.9602C148.641 36.9432 149.4 36.1534 150.382 35.5909C151.371 35.0227 152.553 34.7386 153.928 34.7386C155.303 34.7386 156.482 35.0227 157.465 35.5909C158.453 36.1534 159.212 36.9432 159.74 37.9602C160.275 38.9716 160.542 40.1506 160.542 41.4972C160.542 42.8381 160.275 44.017 159.74 45.0341C159.212 46.0455 158.453 46.8352 157.465 47.4034C156.482 47.9659 155.303 48.2472 153.928 48.2472ZM153.953 45.1023C154.453 45.1023 154.877 44.9489 155.223 44.642C155.57 44.3352 155.834 43.9091 156.016 43.3636C156.203 42.8182 156.297 42.1875 156.297 41.4716C156.297 40.7443 156.203 40.108 156.016 39.5625C155.834 39.017 155.57 38.5909 155.223 38.2841C154.877 37.9773 154.453 37.8239 153.953 37.8239C153.436 37.8239 152.999 37.9773 152.641 38.2841C152.289 38.5909 152.019 39.017 151.831 39.5625C151.65 40.108 151.559 40.7443 151.559 41.4716C151.559 42.1875 151.65 42.8182 151.831 43.3636C152.019 43.9091 152.289 44.3352 152.641 44.642C152.999 44.9489 153.436 45.1023 153.953 45.1023ZM162.676 52.9091V34.9091H166.801V37.1506H166.929C167.1 36.7528 167.341 36.3693 167.654 36C167.972 35.6307 168.375 35.3295 168.864 35.0966C169.358 34.858 169.949 34.7386 170.637 34.7386C171.546 34.7386 172.395 34.9773 173.185 35.4545C173.98 35.9318 174.623 36.6676 175.111 37.6619C175.6 38.6562 175.844 39.9233 175.844 41.4631C175.844 42.946 175.608 44.1875 175.137 45.1875C174.671 46.1875 174.04 46.9375 173.245 47.4375C172.455 47.9375 171.577 48.1875 170.611 48.1875C169.952 48.1875 169.381 48.0795 168.898 47.8636C168.415 47.6477 168.009 47.3636 167.679 47.0114C167.355 46.6591 167.105 46.2812 166.929 45.8778H166.844V52.9091H162.676ZM166.759 41.4545C166.759 42.1591 166.853 42.7727 167.04 43.2955C167.233 43.8182 167.509 44.2244 167.867 44.5142C168.23 44.7983 168.665 44.9403 169.171 44.9403C169.682 44.9403 170.117 44.7983 170.475 44.5142C170.833 44.2244 171.103 43.8182 171.284 43.2955C171.472 42.7727 171.566 42.1591 171.566 41.4545C171.566 40.75 171.472 40.1392 171.284 39.6222C171.103 39.1051 170.833 38.7045 170.475 38.4205C170.123 38.1364 169.688 37.9943 169.171 37.9943C168.659 37.9943 168.225 38.1335 167.867 38.4119C167.509 38.6903 167.233 39.0881 167.04 39.6051C166.853 40.1222 166.759 40.7386 166.759 41.4545ZM189.457 38.9062L185.63 39.0085C185.591 38.7358 185.483 38.4943 185.306 38.2841C185.13 38.0682 184.9 37.9006 184.616 37.7812C184.338 37.6562 184.014 37.5938 183.645 37.5938C183.162 37.5938 182.75 37.6903 182.409 37.8835C182.074 38.0767 181.909 38.3381 181.914 38.6676C181.909 38.9233 182.011 39.1449 182.221 39.3324C182.437 39.5199 182.821 39.6705 183.372 39.7841L185.895 40.2614C187.201 40.5114 188.173 40.9261 188.809 41.5057C189.451 42.0852 189.775 42.8523 189.781 43.8068C189.775 44.7045 189.508 45.4858 188.98 46.1506C188.457 46.8153 187.741 47.3324 186.832 47.7017C185.923 48.0653 184.883 48.2472 183.713 48.2472C181.843 48.2472 180.369 47.8636 179.289 47.0966C178.216 46.3239 177.602 45.2898 177.449 43.9943L181.565 43.892C181.656 44.3693 181.892 44.733 182.272 44.983C182.653 45.233 183.139 45.358 183.73 45.358C184.264 45.358 184.699 45.2585 185.034 45.0597C185.369 44.8608 185.539 44.5966 185.545 44.267C185.539 43.9716 185.409 43.7358 185.153 43.5597C184.897 43.3778 184.497 43.2358 183.951 43.1335L181.667 42.6989C180.355 42.4602 179.377 42.0199 178.735 41.3778C178.093 40.7301 177.775 39.9062 177.781 38.9062C177.775 38.0312 178.008 37.2841 178.48 36.6648C178.951 36.0398 179.622 35.5625 180.491 35.233C181.36 34.9034 182.386 34.7386 183.568 34.7386C185.341 34.7386 186.738 35.1108 187.761 35.8551C188.784 36.5937 189.349 37.6108 189.457 38.9062ZM203.064 46.56H211.344V49.104H203.064V46.56ZM201.72 39.936H212.736V50.04H209.952V42.48H204.36V50.136H201.72V39.936ZM200.88 28.752H211.872V31.392H200.88V28.752ZM210.528 28.752H213.216C213.216 28.752 213.192 29.448 213.168 29.784C213.048 34.8 212.88 36.888 212.28 37.656C211.776 38.28 211.248 38.472 210.48 38.568C209.832 38.664 208.728 38.664 207.552 38.664C207.48 37.824 207.168 36.72 206.712 36C207.72 36.096 208.704 36.096 209.16 36.096C209.496 36.096 209.736 36.048 209.928 35.832C210.288 35.424 210.432 33.696 210.528 29.16V28.752ZM204.312 29.832H207.144C206.784 33.888 205.848 37.272 201.6 39.288C201.264 38.616 200.496 37.608 199.896 37.128C203.496 35.568 204.048 32.928 204.312 29.832ZM194.832 27.648L197.328 28.584C196.344 30.408 195.24 32.544 194.304 33.888L192.384 33.048C193.248 31.632 194.28 29.328 194.832 27.648ZM197.592 30.48L199.92 31.536C198.192 34.296 195.84 37.632 194.016 39.72L192.36 38.784C194.136 36.6 196.344 33.072 197.592 30.48ZM191.136 33.336L192.504 31.368C193.776 32.472 195.264 33.984 195.888 35.088L194.4 37.32C193.824 36.168 192.36 34.488 191.136 33.336ZM196.872 36.216L198.768 35.424C199.704 37.032 200.616 39.144 200.904 40.536L198.864 41.448C198.6 40.056 197.784 37.872 196.872 36.216ZM191.112 38.208C193.32 38.136 196.56 38.016 199.728 37.872L199.704 40.152C196.752 40.368 193.68 40.56 191.352 40.728L191.112 38.208ZM197.4 42.192L199.416 41.544C200.016 42.912 200.64 44.712 200.904 45.912L198.792 46.656C198.552 45.456 197.928 43.608 197.4 42.192ZM192.144 41.736L194.52 42.144C194.28 44.448 193.752 46.848 193.056 48.384C192.552 48.072 191.472 47.568 190.872 47.328C191.568 45.912 191.952 43.776 192.144 41.736ZM194.832 39.48H197.352V50.184H194.832V39.48ZM226.416 30.504C224.544 33.576 220.872 36.888 216.84 39.024C216.48 38.304 215.664 37.224 215.04 36.624C219.312 34.584 223.056 30.744 224.712 27.552H227.832C230.304 31.608 234.12 34.776 238.056 36.288C237.312 37.056 236.664 38.04 236.136 38.928C232.296 36.984 228.36 33.624 226.416 30.504ZM229.08 36.408H232.08V50.16H229.08V36.408ZM220.8 36.528H223.752V39.504C223.752 42.912 223.272 47.208 218.544 50.16C218.04 49.536 216.912 48.576 216.144 48.12C220.368 45.6 220.8 42.216 220.8 39.432V36.528Z" fill="white"/>
</svg>
