<svg width="312" height="95" viewBox="0 0 312 95" fill="none" xmlns="http://www.w3.org/2000/svg">
<path d="M223.065 94.9999H32.9347C14.7464 94.9999 0 76.5314 0 53.7467C0 30.9675 14.7464 12.499 32.9347 12.499H223.065C241.254 12.499 256 30.9675 256 53.7467C256 76.5258 241.254 94.9943 223.065 94.9943V94.9999Z" fill="#CCCCCC"/>
<path d="M224.808 82.5009H33.192C14.8616 82.5009 0 64.0323 0 41.2477C0 18.4685 14.8616 0 33.192 0H224.808C243.138 0 258 18.4685 258 41.2477C258 64.0268 243.138 82.4953 224.808 82.4953V82.5009Z" fill="#186DA8"/>
<g style="mix-blend-mode:multiply">
<path d="M224.808 70.6231H33.192C16.4866 70.6231 2.70536 55.2724 0.383929 35.3115C0.15625 37.2532 0 39.2282 0 41.2476C0 64.0323 14.8616 82.5009 33.192 82.5009H224.808C243.138 82.5009 258 64.0323 258 41.2532C258 39.2338 257.844 37.2588 257.616 35.3171C255.295 55.2779 241.509 70.6286 224.804 70.6286L224.808 70.6231Z" fill="#186DA8"/>
</g>
<path d="M44.8301 62.845C60.0363 62.845 72.3633 50.6072 72.3633 35.5111C72.3633 20.415 60.0363 8.17725 44.8301 8.17725C29.6239 8.17725 17.2969 20.415 17.2969 35.5111C17.2969 50.6072 29.6239 62.845 44.8301 62.845Z" fill="white"/>
<mask id="mask0_489_1053" style="mask-type:luminance" maskUnits="userSpaceOnUse" x="31" y="22" width="28" height="28">
<path d="M35.4583 22.2632L54.9098 24.8318C56.8749 24.8318 58.5701 26.424 58.5701 28.4656L57.5011 45.9133C57.5011 47.8606 55.8977 49.5471 53.8408 49.5471L34.7511 47.3336C32.786 47.3336 31.0908 45.7413 31.0908 43.6998L31.8034 25.897C31.8034 23.8609 33.4068 22.2632 35.4637 22.2632H35.4583Z" fill="white"/>
</mask>
<g mask="url(#mask0_489_1053)">
<path d="M17.2536 29.3477H67.2183L61.0638 56.8923H11.0991L17.2536 29.3477Z" fill="#FBA905"/>
<path d="M68.9999 35.55L60.524 31.1173L26.8039 35.55L24.6606 20.4878L66.1494 17.9192L68.9999 35.55Z" fill="#FC0400"/>
<path d="M63.65 33.1588L62.3111 32.9813C58.2081 32.4487 54.0134 33.2476 50.4448 35.2836L49.1978 35.9937C47.6807 36.8813 45.9855 37.4971 44.2904 37.941L40.9 38.7398C38.8485 39.1837 35.8144 39.45 33.6712 39.1837L27.3385 38.3848C26.6259 38.296 25.9133 38.2073 25.1953 38.0297L20.9141 37.0533C18.15 36.432 15.5586 35.1948 13.329 33.4195L10.2949 31.0284L11.9901 31.3835C12.7945 31.561 13.5071 31.7386 14.3115 31.9161L15.1159 32.1824C16.5412 32.6262 18.0582 32.8925 19.667 32.9813L29.3036 33.6026L34.0329 34.0464C36.5325 34.3127 38.9403 34.0464 41.3481 33.3363L47.4162 31.5666L49.6458 30.9452C54.2833 29.6193 59.3688 30.1464 63.6554 32.3599V33.1588H63.65Z" fill="white"/>
<path d="M51.7835 35.4613L40.9862 41.6637C40.8944 41.6637 40.8944 41.7525 40.808 41.7525C39.7391 42.1076 38.8429 42.4626 37.9521 42.5514C35.2744 42.9064 32.5103 42.9064 29.7461 42.5514H29.6544C29.0281 42.5514 28.4073 42.4626 27.781 42.3739L21.5348 39.8052L21.8047 42.5514H11.0991V41.3974H21.8047L21.4484 38.6513L27.8728 41.2199C28.4073 41.3087 28.9417 41.3974 29.568 41.3974C32.2457 41.7525 35.0098 41.8413 37.774 41.4862H37.8657C38.9347 41.3974 40.009 41.1312 40.9862 40.6873L51.3354 34.4849C52.2262 33.9523 53.2088 32.8927 54.1913 32.8927L58.4725 32.1826L63.558 32.6264C61.5065 30.6792 58.0244 32.3601 54.0995 34.1299" fill="white"/>
</g>
<path d="M97.6644 27.5455V45H94.0849L87.1388 34.9261H87.0281V45H82.8093V27.5455H86.44L93.3093 37.6023H93.4542V27.5455H97.6644ZM108.763 39.3494V31.9091H112.922V45H108.951V42.5625H108.814C108.525 43.3636 108.03 44 107.331 44.4716C106.638 44.9375 105.8 45.1705 104.817 45.1705C103.925 45.1705 103.141 44.9659 102.465 44.5568C101.789 44.1477 101.263 43.5767 100.888 42.8438C100.513 42.1051 100.323 41.2415 100.317 40.2528V31.9091H104.485V39.4347C104.49 40.1449 104.678 40.7045 105.047 41.1136C105.417 41.5227 105.919 41.7273 106.556 41.7273C106.971 41.7273 107.343 41.6364 107.672 41.4545C108.007 41.267 108.272 40.9972 108.465 40.6449C108.664 40.2869 108.763 39.8551 108.763 39.3494ZM115.575 45V31.9091H119.623V34.2955H119.76C119.998 33.4318 120.387 32.7898 120.927 32.3693C121.467 31.9432 122.095 31.7301 122.811 31.7301C123.004 31.7301 123.203 31.7443 123.407 31.7727C123.612 31.7955 123.802 31.8324 123.978 31.8835V35.5057C123.779 35.4375 123.518 35.3835 123.194 35.3438C122.876 35.304 122.592 35.2841 122.342 35.2841C121.848 35.2841 121.402 35.3949 121.004 35.6165C120.612 35.8324 120.302 36.1364 120.075 36.5284C119.853 36.9148 119.743 37.3693 119.743 37.892V45H115.575ZM125.676 45V31.9091H129.844V45H125.676ZM127.765 30.3835C127.179 30.3835 126.676 30.1903 126.256 29.804C125.836 29.4119 125.625 28.9403 125.625 28.3892C125.625 27.8437 125.836 27.3778 126.256 26.9915C126.676 26.5994 127.179 26.4034 127.765 26.4034C128.355 26.4034 128.858 26.5994 129.273 26.9915C129.694 27.3778 129.904 27.8437 129.904 28.3892C129.904 28.9403 129.694 29.4119 129.273 29.804C128.858 30.1903 128.355 30.3835 127.765 30.3835ZM138.608 45.2472C137.227 45.2472 136.042 44.9631 135.054 44.3949C134.071 43.8267 133.315 43.0369 132.787 42.0256C132.258 41.0085 131.994 39.8324 131.994 38.4972C131.994 37.1562 132.258 35.9801 132.787 34.9688C133.321 33.9517 134.079 33.1591 135.062 32.5909C136.051 32.0227 137.23 31.7386 138.599 31.7386C139.809 31.7386 140.863 31.9574 141.761 32.3949C142.664 32.8324 143.369 33.4517 143.875 34.2528C144.386 35.0483 144.656 35.983 144.684 37.0568H140.789C140.71 36.3864 140.483 35.8608 140.108 35.4801C139.738 35.0994 139.255 34.9091 138.659 34.9091C138.176 34.9091 137.752 35.0455 137.389 35.3182C137.025 35.5852 136.741 35.983 136.537 36.5114C136.338 37.0341 136.238 37.6818 136.238 38.4545C136.238 39.2273 136.338 39.8807 136.537 40.4148C136.741 40.9432 137.025 41.3437 137.389 41.6165C137.752 41.8835 138.176 42.017 138.659 42.017C139.045 42.017 139.386 41.9347 139.681 41.7699C139.983 41.6051 140.23 41.3636 140.423 41.0455C140.616 40.7216 140.738 40.3295 140.789 39.8693H144.684C144.645 40.9489 144.375 41.892 143.875 42.6989C143.38 43.5057 142.684 44.1335 141.787 44.5824C140.895 45.0256 139.835 45.2472 138.608 45.2472ZM152.928 45.2472C151.553 45.2472 150.371 44.9659 149.382 44.4034C148.4 43.8352 147.641 43.0455 147.107 42.0341C146.578 41.017 146.314 39.8381 146.314 38.4972C146.314 37.1506 146.578 35.9716 147.107 34.9602C147.641 33.9432 148.4 33.1534 149.382 32.5909C150.371 32.0227 151.553 31.7386 152.928 31.7386C154.303 31.7386 155.482 32.0227 156.465 32.5909C157.453 33.1534 158.212 33.9432 158.74 34.9602C159.275 35.9716 159.542 37.1506 159.542 38.4972C159.542 39.8381 159.275 41.017 158.74 42.0341C158.212 43.0455 157.453 43.8352 156.465 44.4034C155.482 44.9659 154.303 45.2472 152.928 45.2472ZM152.953 42.1023C153.453 42.1023 153.877 41.9489 154.223 41.642C154.57 41.3352 154.834 40.9091 155.016 40.3636C155.203 39.8182 155.297 39.1875 155.297 38.4716C155.297 37.7443 155.203 37.108 155.016 36.5625C154.834 36.017 154.57 35.5909 154.223 35.2841C153.877 34.9773 153.453 34.8239 152.953 34.8239C152.436 34.8239 151.999 34.9773 151.641 35.2841C151.289 35.5909 151.019 36.017 150.831 36.5625C150.65 37.108 150.559 37.7443 150.559 38.4716C150.559 39.1875 150.65 39.8182 150.831 40.3636C151.019 40.9091 151.289 41.3352 151.641 41.642C151.999 41.9489 152.436 42.1023 152.953 42.1023ZM161.676 49.9091V31.9091H165.801V34.1506H165.929C166.1 33.7528 166.341 33.3693 166.654 33C166.972 32.6307 167.375 32.3295 167.864 32.0966C168.358 31.858 168.949 31.7386 169.637 31.7386C170.546 31.7386 171.395 31.9773 172.185 32.4545C172.98 32.9318 173.623 33.6676 174.111 34.6619C174.6 35.6562 174.844 36.9233 174.844 38.4631C174.844 39.946 174.608 41.1875 174.137 42.1875C173.671 43.1875 173.04 43.9375 172.245 44.4375C171.455 44.9375 170.577 45.1875 169.611 45.1875C168.952 45.1875 168.381 45.0795 167.898 44.8636C167.415 44.6477 167.009 44.3636 166.679 44.0114C166.355 43.6591 166.105 43.2812 165.929 42.8778H165.844V49.9091H161.676ZM165.759 38.4545C165.759 39.1591 165.853 39.7727 166.04 40.2955C166.233 40.8182 166.509 41.2244 166.867 41.5142C167.23 41.7983 167.665 41.9403 168.171 41.9403C168.682 41.9403 169.117 41.7983 169.475 41.5142C169.833 41.2244 170.103 40.8182 170.284 40.2955C170.472 39.7727 170.566 39.1591 170.566 38.4545C170.566 37.75 170.472 37.1392 170.284 36.6222C170.103 36.1051 169.833 35.7045 169.475 35.4205C169.123 35.1364 168.688 34.9943 168.171 34.9943C167.659 34.9943 167.225 35.1335 166.867 35.4119C166.509 35.6903 166.233 36.0881 166.04 36.6051C165.853 37.1222 165.759 37.7386 165.759 38.4545ZM188.457 35.9062L184.63 36.0085C184.591 35.7358 184.483 35.4943 184.306 35.2841C184.13 35.0682 183.9 34.9006 183.616 34.7812C183.338 34.6562 183.014 34.5938 182.645 34.5938C182.162 34.5938 181.75 34.6903 181.409 34.8835C181.074 35.0767 180.909 35.3381 180.914 35.6676C180.909 35.9233 181.011 36.1449 181.221 36.3324C181.437 36.5199 181.821 36.6705 182.372 36.7841L184.895 37.2614C186.201 37.5114 187.173 37.9261 187.809 38.5057C188.451 39.0852 188.775 39.8523 188.781 40.8068C188.775 41.7045 188.508 42.4858 187.98 43.1506C187.457 43.8153 186.741 44.3324 185.832 44.7017C184.923 45.0653 183.883 45.2472 182.713 45.2472C180.843 45.2472 179.369 44.8636 178.289 44.0966C177.216 43.3239 176.602 42.2898 176.449 40.9943L180.565 40.892C180.656 41.3693 180.892 41.733 181.272 41.983C181.653 42.233 182.139 42.358 182.73 42.358C183.264 42.358 183.699 42.2585 184.034 42.0597C184.369 41.8608 184.539 41.5966 184.545 41.267C184.539 40.9716 184.409 40.7358 184.153 40.5597C183.897 40.3778 183.497 40.2358 182.951 40.1335L180.667 39.6989C179.355 39.4602 178.377 39.0199 177.735 38.3778C177.093 37.7301 176.775 36.9062 176.781 35.9062C176.775 35.0312 177.008 34.2841 177.48 33.6648C177.951 33.0398 178.622 32.5625 179.491 32.233C180.36 31.9034 181.386 31.7386 182.568 31.7386C184.341 31.7386 185.738 32.1108 186.761 32.8551C187.784 33.5937 188.349 34.6108 188.457 35.9062ZM202.064 43.56H210.344V46.104H202.064V43.56ZM200.72 36.936H211.736V47.04H208.952V39.48H203.36V47.136H200.72V36.936ZM199.88 25.752H210.872V28.392H199.88V25.752ZM209.528 25.752H212.216C212.216 25.752 212.192 26.448 212.168 26.784C212.048 31.8 211.88 33.888 211.28 34.656C210.776 35.28 210.248 35.472 209.48 35.568C208.832 35.664 207.728 35.664 206.552 35.664C206.48 34.824 206.168 33.72 205.712 33C206.72 33.096 207.704 33.096 208.16 33.096C208.496 33.096 208.736 33.048 208.928 32.832C209.288 32.424 209.432 30.696 209.528 26.16V25.752ZM203.312 26.832H206.144C205.784 30.888 204.848 34.272 200.6 36.288C200.264 35.616 199.496 34.608 198.896 34.128C202.496 32.568 203.048 29.928 203.312 26.832ZM193.832 24.648L196.328 25.584C195.344 27.408 194.24 29.544 193.304 30.888L191.384 30.048C192.248 28.632 193.28 26.328 193.832 24.648ZM196.592 27.48L198.92 28.536C197.192 31.296 194.84 34.632 193.016 36.72L191.36 35.784C193.136 33.6 195.344 30.072 196.592 27.48ZM190.136 30.336L191.504 28.368C192.776 29.472 194.264 30.984 194.888 32.088L193.4 34.32C192.824 33.168 191.36 31.488 190.136 30.336ZM195.872 33.216L197.768 32.424C198.704 34.032 199.616 36.144 199.904 37.536L197.864 38.448C197.6 37.056 196.784 34.872 195.872 33.216ZM190.112 35.208C192.32 35.136 195.56 35.016 198.728 34.872L198.704 37.152C195.752 37.368 192.68 37.56 190.352 37.728L190.112 35.208ZM196.4 39.192L198.416 38.544C199.016 39.912 199.64 41.712 199.904 42.912L197.792 43.656C197.552 42.456 196.928 40.608 196.4 39.192ZM191.144 38.736L193.52 39.144C193.28 41.448 192.752 43.848 192.056 45.384C191.552 45.072 190.472 44.568 189.872 44.328C190.568 42.912 190.952 40.776 191.144 38.736ZM193.832 36.48H196.352V47.184H193.832V36.48ZM225.416 27.504C223.544 30.576 219.872 33.888 215.84 36.024C215.48 35.304 214.664 34.224 214.04 33.624C218.312 31.584 222.056 27.744 223.712 24.552H226.832C229.304 28.608 233.12 31.776 237.056 33.288C236.312 34.056 235.664 35.04 235.136 35.928C231.296 33.984 227.36 30.624 225.416 27.504ZM228.08 33.408H231.08V47.16H228.08V33.408ZM219.8 33.528H222.752V36.504C222.752 39.912 222.272 44.208 217.544 47.16C217.04 46.536 215.912 45.576 215.144 45.12C219.368 42.6 219.8 39.216 219.8 36.432V33.528Z" fill="white"/>
</svg>
