<svg width="333" height="68" viewBox="0 0 333 68" fill="none" xmlns="http://www.w3.org/2000/svg">
<rect y="12" width="260" height="56" rx="28" fill="#CCCCCC"/>
<rect y="1" width="260" height="61" rx="30.5" fill="#F56E00"/>
<rect width="260" height="56" rx="28" fill="#FEB274"/>
<path d="M38.5 48C50.3741 48 60 39.0457 60 28C60 16.9543 50.3741 8 38.5 8C26.6259 8 17 16.9543 17 28C17 39.0457 26.6259 48 38.5 48Z" fill="white"/>
<path d="M86.32 24.36H93.72V26.36H86.32V24.36ZM81.4 35.44H98.68V37.4H81.4V35.44ZM82.56 19.76H88.16V21.7H82.56V19.76ZM87.4 19.76H87.8L88.22 19.66L89.78 20.44C88.3 24.36 85.14 27.22 81.78 28.84C81.46 28.34 80.82 27.52 80.34 27.1C83.32 25.84 86.3 23.12 87.4 20.16V19.76ZM91.96 19.08C93.34 22.34 96.14 25.24 99.62 26.56C99.06 27.04 98.36 27.94 98 28.56C94.32 26.88 91.58 23.68 89.92 19.72L91.96 19.08ZM81.6 23.36L82.88 22.04C83.78 22.54 84.88 23.32 85.4 23.92L84.06 25.38C83.54 24.78 82.46 23.92 81.6 23.36ZM95.04 19.2L96.84 20.48C95.74 21.42 94.44 22.4 93.44 23.04L92 21.92C92.96 21.24 94.28 20.08 95.04 19.2ZM97.3 21.54L99.06 22.78C97.92 23.78 96.54 24.82 95.48 25.48L94.04 24.36C95.08 23.64 96.48 22.46 97.3 21.54ZM86.5 29.42V31.18H93.34V29.42H86.5ZM84.16 27.5H95.82V33.08H84.16V27.5ZM85.32 33.34L87.52 32.78C88.04 33.5 88.48 34.52 88.66 35.2L86.36 35.86C86.22 35.18 85.78 34.12 85.32 33.34ZM92.46 32.76L94.78 33.26C94.28 34.24 93.82 35.14 93.42 35.78L91.32 35.3C91.72 34.6 92.22 33.52 92.46 32.76ZM117.52 28.02L119.4 29.16C118.56 30.08 117.68 31.04 116.96 31.68L115.46 30.68C116.12 29.98 117.02 28.84 117.52 28.02ZM108.62 29.32L110.18 28.3C111 29.04 111.88 30.08 112.26 30.84L110.58 31.96C110.26 31.2 109.4 30.1 108.62 29.32ZM109.48 19.7H117.74V26.72H115.52V21.66H109.48V19.7ZM109.92 22.72H116.78V24.56H109.92V22.72ZM108.52 25.58H119.24V27.62H108.52V25.58ZM112.64 26.62H114.86V35.54C114.86 36.52 114.74 37.1 114.1 37.44C113.5 37.78 112.7 37.8 111.6 37.8C111.54 37.2 111.28 36.34 111.02 35.74C111.58 35.76 112.18 35.76 112.38 35.76C112.58 35.76 112.64 35.7 112.64 35.48V26.62ZM107.94 34.52C108.96 33.94 110.46 33 111.94 32.04L112.66 33.84C111.48 34.74 110.18 35.68 109.04 36.44L107.94 34.52ZM114.8 28.04C115.44 30.42 116.96 33.4 119.7 34.8C119.22 35.22 118.5 36.16 118.16 36.76C115.54 35.08 114.1 31.64 113.48 29.32L114.8 28.04ZM102 24H107.92V26H102V24ZM101.04 27.46H108.34V29.5H101.04V27.46ZM101.24 30.62L102.76 30.24C103.1 31.36 103.38 32.76 103.48 33.72L101.86 34.14C101.82 33.18 101.54 31.74 101.24 30.62ZM100.82 35.2C102.72 34.92 105.56 34.4 108.26 33.92L108.44 35.9C105.94 36.42 103.3 36.98 101.28 37.38L100.82 35.2ZM106.78 30.08L108.5 30.5C108.14 31.64 107.82 32.9 107.52 33.74L106.08 33.34C106.34 32.44 106.64 31.04 106.78 30.08ZM103.78 24.8H105.84V35.58L103.78 35.94V24.8ZM103.68 19.02H104.94V19.46H105.62V20.08C104.84 21.6 103.62 23.66 101.64 25.46C101.32 24.98 100.64 24.22 100.2 23.9C101.88 22.46 103.06 20.58 103.68 19.02ZM103.98 19.02H105.66C106.82 20.02 108.3 21.46 109.02 22.48L107.48 24.32C106.84 23.3 105.48 21.62 104.4 20.72H103.98V19.02ZM121.94 21.68H138.16V33.58H135.66V23.98H124.32V33.7H121.94V21.68ZM123.5 26.02H136.84V28.22H123.5V26.02ZM123.5 30.34H136.88V32.64H123.5V30.34ZM128.68 19.02H131.18V37.8H128.68V19.02ZM148.08 19.86H152.3V22.12H148.08V19.86ZM151.1 19.86H153.62C153.92 25.56 155.12 30.38 159.3 32.5C158.74 32.88 157.86 33.76 157.42 34.32C153.16 31.78 151.84 26.74 151.48 20.92H151.1V19.86ZM151.02 24.02L153.5 24.38C152.62 28.88 150.84 32.28 147.88 34.34C147.52 33.88 146.58 32.94 146.04 32.54C148.84 30.86 150.38 27.88 151.02 24.02ZM145.54 26.82V34.18H143.2V29.04H140.86V26.82H145.54ZM145.54 33.14C146.34 34.46 147.86 35.04 149.94 35.12C152.28 35.22 156.82 35.16 159.52 34.94C159.26 35.5 158.86 36.66 158.76 37.38C156.34 37.5 152.3 37.54 149.9 37.44C147.44 37.34 145.78 36.76 144.48 35.2C143.6 35.98 142.7 36.74 141.62 37.62L140.44 35.12C141.34 34.56 142.42 33.86 143.34 33.14H145.54ZM140.9 20.92L142.68 19.48C143.88 20.32 145.34 21.58 146.04 22.52L144.12 24.1C143.52 23.16 142.08 21.82 140.9 20.92ZM163.48 31.34H176.8V37.84H174.38V32.84H165.8V37.86H163.48V31.34ZM164.7 33.58H175.24V34.98H164.7V33.58ZM164.7 35.76H175.24V37.28H164.7V35.76ZM168.7 18.96H171.12V30.12H168.7V18.96ZM163.02 20.22H176.7V26.16H162.8V24.76H174.32V21.62H163.02V20.22ZM160.98 22.34H179.02V24H160.98V22.34ZM162.36 26.86H177.54V28.32H162.36V26.86ZM160.94 29.04H179V30.7H160.94V29.04ZM189.84 22.28H199.44V24.56H188.72L189.84 22.28ZM192.48 26.68H198.92V28.86H192.48V26.68ZM192.46 31.1H199.18V33.34H192.46V31.1ZM191.26 23.04H193.72V37.8H191.26V23.04ZM190.3 19.2L192.62 19.82C191.5 23.06 189.7 26.38 187.86 28.46C187.48 28.02 186.56 27.16 186.04 26.78C187.8 24.98 189.38 22.1 190.3 19.2ZM185.02 19.1L187.34 19.84C186.04 23.24 183.94 26.9 181.74 29.18C181.52 28.58 180.84 27.22 180.42 26.62C182.26 24.8 184 21.96 185.02 19.1ZM183 24.62L185.4 22.2L185.42 22.22V37.78H183V24.62ZM203.62 26.54H208.24V28.74H203.62V26.54ZM207.32 26.54H209.66C209.66 26.54 209.64 27.14 209.64 27.42C209.56 31.66 209.46 33.44 209 34.06C208.6 34.56 208.2 34.74 207.62 34.84C207.08 34.92 206.22 34.92 205.28 34.9C205.24 34.2 204.98 33.26 204.62 32.66C205.34 32.74 206.02 32.74 206.34 32.74C206.62 32.74 206.8 32.7 206.96 32.5C207.2 32.18 207.28 30.78 207.32 26.9V26.54ZM213.34 20.28L214.78 18.82C215.88 19.4 217.36 20.32 218.08 20.98L216.54 22.6C215.88 21.9 214.46 20.92 213.34 20.28ZM215.7 25.42L218.12 26C216.44 31.22 213.5 35.28 209.54 37.72C209.18 37.22 208.3 36.22 207.8 35.74C211.64 33.68 214.32 30.06 215.7 25.42ZM203.76 22.02H219.18V24.38H203.76V22.02ZM202.16 22.02H204.68V27.9C204.68 30.9 204.34 35.34 202.52 38.04C202.12 37.56 201.04 36.68 200.48 36.4C202.02 34 202.16 30.5 202.16 27.88V22.02ZM210.28 19.04H212.8C212.66 27.2 214.5 35.22 216.52 35.22C216.98 35.22 217.22 34.2 217.34 31.68C217.88 32.24 218.74 32.8 219.38 33.04C219 36.76 218.2 37.66 216.32 37.66C211.96 37.66 210.34 28.16 210.28 19.04Z" fill="white"/>
<path fill-rule="evenodd" clip-rule="evenodd" d="M27.3948 20.0157C27.3948 18.8957 28.3381 18 29.4867 18H50.9081C52.0518 18 53 18.8911 53 20.0157V32.2909C53 33.4109 52.0567 34.3066 50.9081 34.3066H33.834V36.1473C33.834 37.1795 32.9643 38 31.912 38H25.922C24.8698 38 24 37.1795 24 36.1473V30.4026C24 29.3704 24.8698 28.5499 25.922 28.5499L27.3948 28.5499V20.0157ZM25.922 29.5908C25.4408 29.5908 25.0656 29.9642 25.0656 30.4026V36.1473C25.0656 36.5857 25.4408 36.9591 25.922 36.9591H31.912C32.3932 36.9591 32.7684 36.5857 32.7684 36.1473V30.4027C32.7684 29.9632 32.3943 29.5908 31.912 29.5908L25.922 29.5908ZM33.834 33.2657V30.4027C33.834 29.3705 32.9643 28.5499 31.912 28.5499L28.4604 28.5499V20.0157C28.4604 19.487 28.9096 19.0409 29.4867 19.0409H50.9081C51.4833 19.0409 51.9344 19.4853 51.9344 20.0157V32.2909C51.9344 32.8195 51.4852 33.2657 50.9081 33.2657H33.834ZM30.6598 22.3189C30.391 22.3189 30.1898 22.5254 30.1898 22.7602V23.2107C30.1898 23.4454 30.391 23.6519 30.6598 23.6519H38.0823C38.3511 23.6519 38.5523 23.4454 38.5523 23.2107V22.7602C38.5523 22.5254 38.3511 22.3189 38.0823 22.3189H30.6598ZM29.1242 22.7602C29.1242 21.9327 29.821 21.2781 30.6598 21.2781H38.0823C38.9211 21.2781 39.6179 21.9327 39.6179 22.7602V23.2107C39.6179 24.0382 38.9211 24.6928 38.0823 24.6928H30.6598C29.821 24.6928 29.1242 24.0382 29.1242 23.2107V22.7602ZM45.4879 22.3189C43.2651 22.3189 41.4799 24.0446 41.4799 26.1533C41.4799 26.8826 41.6935 27.5661 42.0649 28.1482C42.5137 27.6427 43.1532 27.2586 43.888 27.0305C43.6153 26.6704 43.456 26.2192 43.456 25.7411C43.456 24.6209 44.3308 23.6487 45.4879 23.6487C46.6451 23.6487 47.5199 24.6209 47.5199 25.7411C47.5199 26.2194 47.3604 26.6708 47.0875 27.031C47.8224 27.2595 48.462 27.644 48.9109 28.1485C49.2823 27.5663 49.4959 26.8827 49.4959 26.1533C49.4959 24.0446 47.7107 22.3189 45.4879 22.3189ZM49.5026 29.1351C50.1659 28.3119 50.5615 27.2784 50.5615 26.1533C50.5615 23.4518 48.2807 21.2781 45.4879 21.2781C42.6951 21.2781 40.4143 23.4518 40.4143 26.1533C40.4143 27.2788 40.8102 28.3126 41.4741 29.1359L41.4711 29.1425L41.5467 29.2237C42.4452 30.2865 43.7993 30.9775 45.3179 31.0258C45.3745 31.0276 45.4313 31.0285 45.4883 31.0285C45.532 31.0285 45.5755 31.0279 45.6189 31.0269C47.1506 30.9896 48.5179 30.2986 49.424 29.2302L49.5059 29.1422L49.5026 29.1351ZM48.2104 28.9602C47.7388 28.3342 46.7426 27.8335 45.4879 27.8335C44.2321 27.8335 43.2367 28.3326 42.7658 28.9598C43.4816 29.5962 44.4353 29.9876 45.4883 29.9876C46.5411 29.9876 47.4946 29.5963 48.2104 28.9602ZM45.4879 26.7926C45.9867 26.7926 46.4543 26.3572 46.4543 25.7411C46.4543 25.125 45.9867 24.6896 45.4879 24.6896C44.9892 24.6896 44.5216 25.125 44.5216 25.7411C44.5216 26.3572 44.9892 26.7926 45.4879 26.7926ZM29.5137 25.9168C29.5137 25.6294 29.7522 25.3964 30.0465 25.3964H38.3552C38.6494 25.3964 38.888 25.6294 38.888 25.9168C38.888 26.2042 38.6494 26.4372 38.3552 26.4372H30.0465C29.7522 26.4372 29.5137 26.2042 29.5137 25.9168ZM32.0521 27.869C32.0521 27.5816 32.2907 27.3485 32.5849 27.3485H38.0219C38.3161 27.3485 38.5547 27.5816 38.5547 27.869C38.5547 28.1564 38.3161 28.3894 38.0219 28.3894H32.5849C32.2907 28.3894 32.0521 28.1564 32.0521 27.869ZM25.5128 31.1023C25.5128 30.8149 25.7514 30.5819 26.0456 30.5819H30.763C31.0572 30.5819 31.2958 30.8149 31.2958 31.1023C31.2958 31.3898 31.0572 31.6228 30.763 31.6228H26.0456C25.7514 31.6228 25.5128 31.3898 25.5128 31.1023ZM25.5128 32.9107C25.5128 32.6233 25.7514 32.3903 26.0456 32.3903H30.763C31.0572 32.3903 31.2958 32.6233 31.2958 32.9107C31.2958 33.1981 31.0572 33.4311 30.763 33.4311H26.0456C25.7514 33.4311 25.5128 33.1981 25.5128 32.9107ZM25.5128 34.7222C25.5128 34.4348 25.7514 34.2018 26.0456 34.2018H28.4043C28.6986 34.2018 28.9371 34.4348 28.9371 34.7222C28.9371 35.0097 28.6986 35.2427 28.4043 35.2427H26.0456C25.7514 35.2427 25.5128 35.0097 25.5128 34.7222ZM32.2314 34.5293C32.4489 34.7228 32.4646 35.052 32.2665 35.2644L30.9139 36.715C30.7955 36.842 30.6205 36.9037 30.4463 36.88C30.2721 36.8562 30.1212 36.75 30.0429 36.5961L29.3066 35.1488C29.1757 34.8914 29.2832 34.579 29.5467 34.4511C29.8102 34.3232 30.13 34.4282 30.2609 34.6856L30.6506 35.4517L31.4787 34.5636C31.6769 34.3511 32.0138 34.3357 32.2314 34.5293Z" fill="#FF6B03"/>
</svg>
