<svg width="333" height="66" viewBox="0 0 333 66" fill="none" xmlns="http://www.w3.org/2000/svg">
<rect width="260" height="56" rx="28" fill="#F56E00"/>
<rect y="10" width="260" height="56" rx="28" fill="#CCCCCC"/>
<rect width="260" height="61" rx="30.5" fill="#F56E00"/>
<path d="M38.5 50C50.3741 50 60 40.8218 60 29.5C60 18.1782 50.3741 9 38.5 9C26.6259 9 17 18.1782 17 29.5C17 40.8218 26.6259 50 38.5 50Z" fill="white"/>
<path fill-rule="evenodd" clip-rule="evenodd" d="M27.3948 21.1165C27.3948 19.9405 28.3381 19 29.4867 19H50.9081C52.0518 19 53 19.9356 53 21.1165V34.0054C53 35.1814 52.0567 36.1219 50.9081 36.1219H33.834V38.0546C33.834 39.1384 32.9643 40 31.912 40H25.922C24.8698 40 24 39.1384 24 38.0546V32.0228C24 30.939 24.8698 30.0774 25.922 30.0774L27.3948 30.0774V21.1165ZM25.922 31.1703C25.4408 31.1703 25.0656 31.5624 25.0656 32.0228V38.0546C25.0656 38.515 25.4408 38.9071 25.922 38.9071H31.912C32.3932 38.9071 32.7684 38.515 32.7684 38.0546V32.0228C32.7684 31.5614 32.3943 31.1703 31.912 31.1703L25.922 31.1703ZM33.834 35.029V32.0228C33.834 30.939 32.9643 30.0774 31.912 30.0774L28.4604 30.0774V21.1165C28.4604 20.5614 28.9096 20.0929 29.4867 20.0929H50.9081C51.4833 20.0929 51.9344 20.5595 51.9344 21.1165V34.0054C51.9344 34.5605 51.4852 35.029 50.9081 35.029H33.834ZM30.6598 23.5349C30.391 23.5349 30.1898 23.7517 30.1898 23.9982V24.4712C30.1898 24.7177 30.391 24.9345 30.6598 24.9345H38.0823C38.3511 24.9345 38.5523 24.7177 38.5523 24.4712V23.9982C38.5523 23.7517 38.3511 23.5349 38.0823 23.5349H30.6598ZM29.1242 23.9982C29.1242 23.1293 29.821 22.442 30.6598 22.442H38.0823C38.9211 22.442 39.6179 23.1293 39.6179 23.9982V24.4712C39.6179 25.3401 38.9211 26.0274 38.0823 26.0274H30.6598C29.821 26.0274 29.1242 25.3401 29.1242 24.4712V23.9982ZM45.4879 23.5349C43.2651 23.5349 41.4799 25.3468 41.4799 27.5609C41.4799 28.3267 41.6935 29.0444 42.0649 29.6556C42.5137 29.1249 43.1532 28.7215 43.888 28.482C43.6153 28.1039 43.456 27.6302 43.456 27.1281C43.456 25.9519 44.3308 24.9312 45.4879 24.9312C46.6451 24.9312 47.5199 25.9519 47.5199 27.1281C47.5199 27.6304 47.3604 28.1044 47.0875 28.4826C47.8224 28.7225 48.462 29.1262 48.9109 29.656C49.2823 29.0447 49.4959 28.3269 49.4959 27.5609C49.4959 25.3468 47.7107 23.5349 45.4879 23.5349ZM49.5026 30.6918C50.1659 29.8275 50.5615 28.7423 50.5615 27.5609C50.5615 24.7244 48.2807 22.442 45.4879 22.442C42.6951 22.442 40.4143 24.7244 40.4143 27.5609C40.4143 28.7427 40.8102 29.8282 41.4741 30.6926L41.4711 30.6996L41.5467 30.7849C42.4452 31.9009 43.7993 32.6264 45.3179 32.677C45.3745 32.6789 45.4313 32.6799 45.4883 32.6799C45.532 32.6799 45.5755 32.6793 45.6189 32.6782C47.1506 32.6391 48.5179 31.9135 49.424 30.7917L49.5059 30.6993L49.5026 30.6918ZM48.2104 30.5082C47.7388 29.8509 46.7426 29.3251 45.4879 29.3251C44.2321 29.3251 43.2367 29.8492 42.7658 30.5078C43.4816 31.176 44.4353 31.587 45.4883 31.587C46.5411 31.587 47.4946 31.1762 48.2104 30.5082ZM45.4879 28.2322C45.9867 28.2322 46.4543 27.775 46.4543 27.1281C46.4543 26.4812 45.9867 26.0241 45.4879 26.0241C44.9892 26.0241 44.5216 26.4812 44.5216 27.1281C44.5216 27.775 44.9892 28.2322 45.4879 28.2322ZM29.5137 27.3127C29.5137 27.0109 29.7522 26.7662 30.0465 26.7662H38.3552C38.6494 26.7662 38.888 27.0109 38.888 27.3127C38.888 27.6145 38.6494 27.8591 38.3552 27.8591H30.0465C29.7522 27.8591 29.5137 27.6145 29.5137 27.3127ZM32.0521 29.3624C32.0521 29.0606 32.2907 28.816 32.5849 28.816H38.0219C38.3161 28.816 38.5547 29.0606 38.5547 29.3624C38.5547 29.6642 38.3161 29.9089 38.0219 29.9089H32.5849C32.2907 29.9089 32.0521 29.6642 32.0521 29.3624ZM25.5128 32.7575C25.5128 32.4557 25.7514 32.211 26.0456 32.211H30.763C31.0572 32.211 31.2958 32.4557 31.2958 32.7575C31.2958 33.0593 31.0572 33.3039 30.763 33.3039H26.0456C25.7514 33.3039 25.5128 33.0593 25.5128 32.7575ZM25.5128 34.6562C25.5128 34.3544 25.7514 34.1098 26.0456 34.1098H30.763C31.0572 34.1098 31.2958 34.3544 31.2958 34.6562C31.2958 34.958 31.0572 35.2027 30.763 35.2027H26.0456C25.7514 35.2027 25.5128 34.958 25.5128 34.6562ZM25.5128 36.5583C25.5128 36.2566 25.7514 36.0119 26.0456 36.0119H28.4043C28.6986 36.0119 28.9371 36.2566 28.9371 36.5583C28.9371 36.8601 28.6986 37.1048 28.4043 37.1048H26.0456C25.7514 37.1048 25.5128 36.8601 25.5128 36.5583ZM32.2314 36.3557C32.4489 36.5589 32.4646 36.9046 32.2665 37.1277L30.9139 38.6507C30.7955 38.7841 30.6205 38.8489 30.4463 38.824C30.2721 38.799 30.1212 38.6875 30.0429 38.5259L29.3066 37.0062C29.1757 36.7359 29.2832 36.408 29.5467 36.2737C29.8102 36.1394 30.13 36.2496 30.2609 36.5199L30.6506 37.3242L31.4787 36.3917C31.6769 36.1686 32.0138 36.1525 32.2314 36.3557Z" fill="#FF6B03"/>
<path d="M86.32 26.36H93.72V28.36H86.32V26.36ZM81.4 37.44H98.68V39.4H81.4V37.44ZM82.56 21.76H88.16V23.7H82.56V21.76ZM87.4 21.76H87.8L88.22 21.66L89.78 22.44C88.3 26.36 85.14 29.22 81.78 30.84C81.46 30.34 80.82 29.52 80.34 29.1C83.32 27.84 86.3 25.12 87.4 22.16V21.76ZM91.96 21.08C93.34 24.34 96.14 27.24 99.62 28.56C99.06 29.04 98.36 29.94 98 30.56C94.32 28.88 91.58 25.68 89.92 21.72L91.96 21.08ZM81.6 25.36L82.88 24.04C83.78 24.54 84.88 25.32 85.4 25.92L84.06 27.38C83.54 26.78 82.46 25.92 81.6 25.36ZM95.04 21.2L96.84 22.48C95.74 23.42 94.44 24.4 93.44 25.04L92 23.92C92.96 23.24 94.28 22.08 95.04 21.2ZM97.3 23.54L99.06 24.78C97.92 25.78 96.54 26.82 95.48 27.48L94.04 26.36C95.08 25.64 96.48 24.46 97.3 23.54ZM86.5 31.42V33.18H93.34V31.42H86.5ZM84.16 29.5H95.82V35.08H84.16V29.5ZM85.32 35.34L87.52 34.78C88.04 35.5 88.48 36.52 88.66 37.2L86.36 37.86C86.22 37.18 85.78 36.12 85.32 35.34ZM92.46 34.76L94.78 35.26C94.28 36.24 93.82 37.14 93.42 37.78L91.32 37.3C91.72 36.6 92.22 35.52 92.46 34.76ZM117.52 30.02L119.4 31.16C118.56 32.08 117.68 33.04 116.96 33.68L115.46 32.68C116.12 31.98 117.02 30.84 117.52 30.02ZM108.62 31.32L110.18 30.3C111 31.04 111.88 32.08 112.26 32.84L110.58 33.96C110.26 33.2 109.4 32.1 108.62 31.32ZM109.48 21.7H117.74V28.72H115.52V23.66H109.48V21.7ZM109.92 24.72H116.78V26.56H109.92V24.72ZM108.52 27.58H119.24V29.62H108.52V27.58ZM112.64 28.62H114.86V37.54C114.86 38.52 114.74 39.1 114.1 39.44C113.5 39.78 112.7 39.8 111.6 39.8C111.54 39.2 111.28 38.34 111.02 37.74C111.58 37.76 112.18 37.76 112.38 37.76C112.58 37.76 112.64 37.7 112.64 37.48V28.62ZM107.94 36.52C108.96 35.94 110.46 35 111.94 34.04L112.66 35.84C111.48 36.74 110.18 37.68 109.04 38.44L107.94 36.52ZM114.8 30.04C115.44 32.42 116.96 35.4 119.7 36.8C119.22 37.22 118.5 38.16 118.16 38.76C115.54 37.08 114.1 33.64 113.48 31.32L114.8 30.04ZM102 26H107.92V28H102V26ZM101.04 29.46H108.34V31.5H101.04V29.46ZM101.24 32.62L102.76 32.24C103.1 33.36 103.38 34.76 103.48 35.72L101.86 36.14C101.82 35.18 101.54 33.74 101.24 32.62ZM100.82 37.2C102.72 36.92 105.56 36.4 108.26 35.92L108.44 37.9C105.94 38.42 103.3 38.98 101.28 39.38L100.82 37.2ZM106.78 32.08L108.5 32.5C108.14 33.64 107.82 34.9 107.52 35.74L106.08 35.34C106.34 34.44 106.64 33.04 106.78 32.08ZM103.78 26.8H105.84V37.58L103.78 37.94V26.8ZM103.68 21.02H104.94V21.46H105.62V22.08C104.84 23.6 103.62 25.66 101.64 27.46C101.32 26.98 100.64 26.22 100.2 25.9C101.88 24.46 103.06 22.58 103.68 21.02ZM103.98 21.02H105.66C106.82 22.02 108.3 23.46 109.02 24.48L107.48 26.32C106.84 25.3 105.48 23.62 104.4 22.72H103.98V21.02ZM121.94 23.68H138.16V35.58H135.66V25.98H124.32V35.7H121.94V23.68ZM123.5 28.02H136.84V30.22H123.5V28.02ZM123.5 32.34H136.88V34.64H123.5V32.34ZM128.68 21.02H131.18V39.8H128.68V21.02ZM148.08 21.86H152.3V24.12H148.08V21.86ZM151.1 21.86H153.62C153.92 27.56 155.12 32.38 159.3 34.5C158.74 34.88 157.86 35.76 157.42 36.32C153.16 33.78 151.84 28.74 151.48 22.92H151.1V21.86ZM151.02 26.02L153.5 26.38C152.62 30.88 150.84 34.28 147.88 36.34C147.52 35.88 146.58 34.94 146.04 34.54C148.84 32.86 150.38 29.88 151.02 26.02ZM145.54 28.82V36.18H143.2V31.04H140.86V28.82H145.54ZM145.54 35.14C146.34 36.46 147.86 37.04 149.94 37.12C152.28 37.22 156.82 37.16 159.52 36.94C159.26 37.5 158.86 38.66 158.76 39.38C156.34 39.5 152.3 39.54 149.9 39.44C147.44 39.34 145.78 38.76 144.48 37.2C143.6 37.98 142.7 38.74 141.62 39.62L140.44 37.12C141.34 36.56 142.42 35.86 143.34 35.14H145.54ZM140.9 22.92L142.68 21.48C143.88 22.32 145.34 23.58 146.04 24.52L144.12 26.1C143.52 25.16 142.08 23.82 140.9 22.92ZM163.48 33.34H176.8V39.84H174.38V34.84H165.8V39.86H163.48V33.34ZM164.7 35.58H175.24V36.98H164.7V35.58ZM164.7 37.76H175.24V39.28H164.7V37.76ZM168.7 20.96H171.12V32.12H168.7V20.96ZM163.02 22.22H176.7V28.16H162.8V26.76H174.32V23.62H163.02V22.22ZM160.98 24.34H179.02V26H160.98V24.34ZM162.36 28.86H177.54V30.32H162.36V28.86ZM160.94 31.04H179V32.7H160.94V31.04ZM189.84 24.28H199.44V26.56H188.72L189.84 24.28ZM192.48 28.68H198.92V30.86H192.48V28.68ZM192.46 33.1H199.18V35.34H192.46V33.1ZM191.26 25.04H193.72V39.8H191.26V25.04ZM190.3 21.2L192.62 21.82C191.5 25.06 189.7 28.38 187.86 30.46C187.48 30.02 186.56 29.16 186.04 28.78C187.8 26.98 189.38 24.1 190.3 21.2ZM185.02 21.1L187.34 21.84C186.04 25.24 183.94 28.9 181.74 31.18C181.52 30.58 180.84 29.22 180.42 28.62C182.26 26.8 184 23.96 185.02 21.1ZM183 26.62L185.4 24.2L185.42 24.22V39.78H183V26.62ZM203.62 28.54H208.24V30.74H203.62V28.54ZM207.32 28.54H209.66C209.66 28.54 209.64 29.14 209.64 29.42C209.56 33.66 209.46 35.44 209 36.06C208.6 36.56 208.2 36.74 207.62 36.84C207.08 36.92 206.22 36.92 205.28 36.9C205.24 36.2 204.98 35.26 204.62 34.66C205.34 34.74 206.02 34.74 206.34 34.74C206.62 34.74 206.8 34.7 206.96 34.5C207.2 34.18 207.28 32.78 207.32 28.9V28.54ZM213.34 22.28L214.78 20.82C215.88 21.4 217.36 22.32 218.08 22.98L216.54 24.6C215.88 23.9 214.46 22.92 213.34 22.28ZM215.7 27.42L218.12 28C216.44 33.22 213.5 37.28 209.54 39.72C209.18 39.22 208.3 38.22 207.8 37.74C211.64 35.68 214.32 32.06 215.7 27.42ZM203.76 24.02H219.18V26.38H203.76V24.02ZM202.16 24.02H204.68V29.9C204.68 32.9 204.34 37.34 202.52 40.04C202.12 39.56 201.04 38.68 200.48 38.4C202.02 36 202.16 32.5 202.16 29.88V24.02ZM210.28 21.04H212.8C212.66 29.2 214.5 37.22 216.52 37.22C216.98 37.22 217.22 36.2 217.34 33.68C217.88 34.24 218.74 34.8 219.38 35.04C219 38.76 218.2 39.66 216.32 39.66C211.96 39.66 210.34 30.16 210.28 21.04Z" fill="white"/>
</svg>
