<svg width="256" height="95" viewBox="0 0 256 95" fill="none" xmlns="http://www.w3.org/2000/svg">
<path d="M223.065 94.9999H32.9347C14.7464 94.9999 0 75.4938 0 51.429C0 27.3701 14.7464 7.86401 32.9347 7.86401H223.065C241.254 7.86401 256 27.3701 256 51.429C256 75.488 241.254 94.9941 223.065 94.9941V94.9999Z" fill="#CCCCCC"/>
<path d="M223.065 87.1359H32.9347C14.7464 87.1359 0 67.6298 0 43.565C0 19.5061 14.7464 0 32.9347 0H223.065C241.254 0 256 19.5061 256 43.565C256 67.6239 241.254 87.1301 223.065 87.1301V87.1359Z" fill="#FF2D00"/>
<path d="M44.5 67.4097C60.2401 67.4097 73 54.47 73 38.5082C73 22.5463 60.2401 9.60669 44.5 9.60669C28.7599 9.60669 16 22.5463 16 38.5082C16 54.47 28.7599 67.4097 44.5 67.4097Z" fill="white"/>
<path fill-rule="evenodd" clip-rule="evenodd" d="M45.063 27.8422C47.3547 27.8718 49.5477 28.7769 51.1795 30.3799C52.8113 31.9771 53.7571 34.1421 53.8143 36.4195V36.7508L53.6895 47.0139L55.1654 47.0316C55.5396 47.0316 55.9034 47.1854 56.1736 47.4457C56.4438 47.706 56.6049 48.0609 56.6205 48.4336C56.6361 48.8062 56.5114 49.173 56.2671 49.4569C56.0229 49.7409 55.6747 49.9183 55.3005 49.9597H55.129L44.7927 49.8414L34.4564 49.7172C34.0822 49.7172 33.7185 49.5634 33.4482 49.3031C33.178 49.0429 33.0169 48.6879 33.0013 48.3153C32.9857 47.9426 33.1104 47.5759 33.3547 47.2919C33.5989 47.008 33.9471 46.8305 34.3213 46.7891H34.4928L35.9686 46.8009L36.0934 36.5378C36.1245 34.2072 37.0807 31.9771 38.7645 30.3503C40.4482 28.7236 42.714 27.8186 45.063 27.8481V27.8422ZM43.7066 35.1359L41.4616 38.7501C41.3213 38.9749 41.2485 39.2293 41.2381 39.4896C41.2329 39.7498 41.2953 40.0101 41.42 40.2408C41.5448 40.4715 41.7318 40.6608 41.9605 40.7969C42.1891 40.9329 42.4438 41.0039 42.7088 41.0098L44.5069 41.0335L43.6183 42.465C43.4208 42.7962 43.3636 43.1926 43.452 43.5652C43.5455 43.9379 43.7794 44.2633 44.1119 44.4644C44.4393 44.6655 44.8395 44.7306 45.2137 44.6478C45.593 44.5649 45.9204 44.3342 46.1283 44.0089L48.3733 40.3946C48.5136 40.1698 48.5863 39.9155 48.5967 39.6552C48.6019 39.3949 48.5396 39.1346 48.4148 38.9039C48.2901 38.6732 48.103 38.484 47.8744 38.3479C47.6457 38.2118 47.3911 38.1409 47.1261 38.1349L45.328 38.1113L46.2166 36.6798C46.4141 36.3485 46.4713 35.9522 46.3829 35.5795C46.2894 35.2068 46.0555 34.8815 45.7229 34.6804C45.3955 34.4793 44.9954 34.4142 44.6212 34.497C44.2419 34.5798 43.9145 34.8105 43.7066 35.1359ZM35.5581 24.9969L35.6932 25.1212L36.7222 26.1682C36.982 26.4344 37.1327 26.7893 37.1379 27.162C37.1431 27.5346 37.008 27.8955 36.7585 28.1735C36.5091 28.4515 36.1609 28.6231 35.7868 28.6526C35.4126 28.6822 35.0436 28.5698 34.7474 28.3391L34.6123 28.2149L33.5833 27.1679C33.3235 26.9017 33.1728 26.5468 33.1676 26.1741C33.1624 25.8014 33.2975 25.4406 33.547 25.1626C33.7964 24.8846 34.1446 24.713 34.5188 24.6834C34.8929 24.6539 35.2619 24.7663 35.5581 24.9969ZM56.5789 25.3755C56.8544 25.6536 57.0051 26.0262 56.9999 26.4166C56.9999 26.807 56.8336 27.1738 56.5529 27.4459L55.498 28.4693C55.3577 28.6053 55.1966 28.7177 55.0147 28.7946C54.8328 28.8715 54.6406 28.907 54.4431 28.907C54.2456 28.907 54.0533 28.8656 53.8714 28.7887C53.6895 28.7118 53.5284 28.5994 53.3881 28.4633C53.253 28.3214 53.1439 28.1617 53.0711 27.9783C52.9984 27.7949 52.962 27.6056 52.9672 27.4104C52.9672 27.2152 53.014 27.0259 53.0919 26.8485C53.1699 26.671 53.2842 26.5113 53.4297 26.3752L54.4846 25.3519C54.7653 25.0798 55.1446 24.9319 55.5344 24.9378C55.9241 24.9437 56.2983 25.1034 56.5737 25.3814L56.5789 25.3755ZM45.1513 20.5131C45.541 20.5131 45.9152 20.6787 46.1906 20.9568C46.4661 21.2348 46.6168 21.6075 46.6116 21.9979L46.596 23.4649C46.596 23.8553 46.4297 24.222 46.1491 24.4941C45.8684 24.7662 45.4891 24.9141 45.0993 24.9082C44.7096 24.9082 44.3354 24.7426 44.06 24.4646C43.7846 24.1865 43.6338 23.8139 43.639 23.4235L43.6546 21.9565C43.6546 21.566 43.8209 21.1993 44.1015 20.9272C44.3822 20.6551 44.7615 20.5072 45.1513 20.5131Z" fill="#FC0400"/>
<path d="M98.576 34.984V43.816H95.84V37.648H92.768V34.984H98.576ZM98.576 42.688C99.536 44.296 101.192 44.968 103.664 45.064C106.52 45.208 112.232 45.136 115.544 44.872C115.232 45.52 114.8 46.84 114.656 47.68C111.68 47.824 106.568 47.872 103.616 47.728C100.736 47.608 98.816 46.912 97.376 45.064C96.272 46 95.144 46.936 93.776 47.944L92.456 45.088C93.584 44.44 94.928 43.576 96.08 42.688H98.576ZM93.104 27.976L95.096 26.128C96.584 27.136 98.456 28.696 99.32 29.848L97.16 31.912C96.392 30.76 94.592 29.08 93.104 27.976ZM102.824 30.28L104.648 28.744C106.784 29.488 109.808 30.784 111.44 31.72L109.472 33.424C108.008 32.512 105.032 31.144 102.824 30.28ZM100.64 31.648H112.856V33.736H103.352V44.08H100.64V31.648ZM111.512 31.648H114.248V41.584C114.248 42.76 114.056 43.36 113.264 43.744C112.52 44.152 111.464 44.152 110.024 44.152C109.928 43.456 109.616 42.52 109.304 41.896C110.072 41.92 110.912 41.92 111.152 41.92C111.44 41.92 111.512 41.824 111.512 41.56V31.648ZM100.856 26.416H112.304V28.6H100.856V26.416ZM102.152 35.032H112.448V37.024H102.152V35.032ZM102.152 38.392H112.448V40.48H102.152V38.392ZM106.112 32.632H108.68V43.984H106.112V32.632ZM111.272 26.416H111.92L112.496 26.272L114.2 27.664C112.496 29.248 110.12 30.952 107.912 32.008C107.576 31.528 106.88 30.784 106.472 30.4C108.272 29.536 110.36 28.024 111.272 26.92V26.416ZM129.56 34.912H136.904V37.192H129.56V34.912ZM128.144 26.632H136.976V29.152H130.736V48.16H128.144V26.632ZM135.512 26.632H138.176V31.168C138.176 32.392 137.936 33.112 137 33.496C136.064 33.88 134.768 33.904 132.992 33.904C132.896 33.16 132.536 32.128 132.2 31.432C133.376 31.48 134.696 31.48 135.032 31.48C135.416 31.456 135.512 31.384 135.512 31.12V26.632ZM132.584 36.592C133.784 40.576 136.208 44.2 139.592 45.904C138.968 46.432 138.128 47.464 137.696 48.184C134.144 46.048 131.792 41.944 130.424 37.144L132.584 36.592ZM136.064 34.912H136.568L137.024 34.792L138.752 35.416C137.888 40.888 135.68 45.544 132.08 48.208C131.648 47.56 130.808 46.72 130.184 46.24C133.472 43.96 135.464 39.808 136.064 35.464V34.912ZM117.584 27.76H126.8V30.136H117.584V27.76ZM117.416 41.296H127.064V43.72H117.416V41.296ZM116.72 31.792H127.688V34.216H116.72V31.792ZM117.2 37H127.328V39.424H117.2V37ZM120.992 25.696H123.656V32.704H120.992V25.696ZM120.992 38.008H123.656V48.088H120.992V38.008ZM124.256 33.856L126.632 34.432C126.152 35.536 125.744 36.616 125.36 37.36L123.32 36.784C123.656 35.968 124.064 34.72 124.256 33.856ZM118.232 34.432L120.368 33.904C120.824 34.792 121.256 36.04 121.352 36.784L119.096 37.408C119 36.64 118.64 35.392 118.232 34.432ZM155.672 26.656C155.6 27.064 155.528 28.336 155.504 28.72C155.432 30.304 155.48 35.2 155.504 37.12L152.504 36.112C152.504 34.624 152.504 30.016 152.408 28.744C152.336 27.784 152.24 26.968 152.192 26.656H155.672ZM142.088 29.656C145.664 29.656 152 29.464 155 29.464C157.448 29.464 161.096 29.44 162.44 29.464L162.392 32.296C160.904 32.224 158.456 32.152 154.928 32.152C150.56 32.152 145.784 32.344 142.16 32.536L142.088 29.656ZM155.096 36.76C155.096 40.672 153.656 42.616 150.896 42.616C149.048 42.616 146.744 41.152 146.744 38.224C146.744 35.512 148.952 33.736 151.544 33.736C154.712 33.736 156.368 36.064 156.368 39.04C156.368 42.184 154.52 46.144 148.664 47.8L146.12 45.256C150.2 44.368 153.392 42.76 153.392 38.56C153.392 37 152.552 36.256 151.496 36.256C150.56 36.256 149.624 36.904 149.624 38.176C149.624 39.256 150.512 39.952 151.496 39.952C152.624 39.952 153.608 38.992 152.84 36.136L155.096 36.76ZM169.28 27.736C169.952 27.808 170.768 27.856 171.44 27.856C172.736 27.856 177.848 27.736 179.216 27.616C180.224 27.544 180.776 27.448 181.064 27.352L182.6 29.512C182.048 29.872 181.472 30.208 180.944 30.616C179.648 31.528 177.128 33.64 175.592 34.84C176.408 34.624 177.128 34.576 177.872 34.576C181.952 34.576 185.048 37.12 185.048 40.6C185.048 44.392 182.168 47.392 176.36 47.392C173.024 47.392 170.504 45.88 170.504 43.456C170.504 41.512 172.28 39.736 174.824 39.736C178.112 39.736 179.936 41.944 180.008 44.584L177.2 44.944C177.152 43.216 176.24 42.016 174.824 42.016C173.936 42.016 173.336 42.568 173.336 43.192C173.336 44.08 174.32 44.68 175.784 44.68C179.84 44.68 181.904 43.144 181.904 40.576C181.904 38.392 179.744 36.928 176.936 36.928C173.24 36.928 170.864 38.896 168.296 41.8L166.112 39.544C167.816 38.2 170.72 35.752 172.112 34.576C173.456 33.472 175.976 31.456 177.152 30.4C175.928 30.448 172.616 30.568 171.32 30.664C170.672 30.712 169.928 30.76 169.376 30.856L169.28 27.736Z" fill="white"/>
</svg>
