<svg width="256" height="94" viewBox="0 0 256 94" fill="none" xmlns="http://www.w3.org/2000/svg">
<path d="M223.065 93.9999H32.9347C14.7464 93.9999 0 75.7258 0 53.1809C0 30.6416 14.7464 12.3674 32.9347 12.3674H223.065C241.254 12.3674 256 30.6416 256 53.1809C256 75.7203 241.254 93.9944 223.065 93.9944V93.9999Z" fill="#CCCCCC"/>
<path d="M223.065 81.6325H32.9347C14.7464 81.6325 0 63.3583 0 40.8135C0 18.2741 14.7464 0 32.9347 0H223.065C241.254 0 256 18.2741 256 40.8135C256 63.3528 241.254 81.627 223.065 81.627V81.6325Z" fill="#FF6B03"/>
<g style="mix-blend-mode:multiply">
<path d="M223.065 69.8795H32.9347C16.3588 69.8795 2.68439 54.6905 0.380952 34.9397C0.155039 36.861 0 38.8152 0 40.8133C0 63.3527 14.7464 81.6268 32.9347 81.6268H223.065C241.254 81.6268 256 63.3527 256 40.8133C256 38.8152 255.845 36.861 255.619 34.9397C253.316 54.6905 239.637 69.8795 223.061 69.8795H223.065Z" fill="#FF6B03"/>
</g>
<path d="M44.5 62.1522C60.2401 62.1522 73 50.0298 73 35.0761C73 20.1224 60.2401 8 44.5 8C28.7599 8 16 20.1224 16 35.0761C16 50.0298 28.7599 62.1522 44.5 62.1522Z" fill="white"/>
<path fill-rule="evenodd" clip-rule="evenodd" d="M45.063 25.0837C47.3547 25.1114 49.5477 25.9593 51.1795 27.4611C52.8113 28.9573 53.7571 30.9856 53.8143 33.1192V33.4295L53.6895 43.0445L55.1654 43.0611C55.5396 43.0611 55.9034 43.2052 56.1736 43.449C56.4438 43.6928 56.6049 44.0253 56.6205 44.3745C56.6361 44.7236 56.5114 45.0672 56.2671 45.3332C56.0229 45.5992 55.6747 45.7654 55.3005 45.8042H55.129L44.7927 45.6934L34.4564 45.577C34.0822 45.577 33.7185 45.4329 33.4482 45.1891C33.178 44.9453 33.0169 44.6128 33.0013 44.2636C32.9857 43.9145 33.1104 43.5709 33.3547 43.3049C33.5989 43.0389 33.9471 42.8727 34.3213 42.8339H34.4928L35.9686 42.8449L36.0934 33.23C36.1245 31.0466 37.0807 28.9573 38.7645 27.4334C40.4482 25.9094 42.714 25.0615 45.063 25.0892V25.0837ZM43.7066 31.9166L41.4616 35.3026C41.3213 35.5132 41.2485 35.7515 41.2381 35.9954C41.2329 36.2392 41.2953 36.483 41.42 36.6992C41.5448 36.9153 41.7318 37.0926 41.9605 37.2201C42.1891 37.3475 42.4438 37.414 42.7088 37.4196L44.5069 37.4417L43.6183 38.7829C43.4208 39.0932 43.3636 39.4645 43.452 39.8136C43.5455 40.1627 43.7794 40.4675 44.1119 40.656C44.4393 40.8444 44.8395 40.9053 45.2137 40.8278C45.593 40.7502 45.9204 40.534 46.1283 40.2292L48.3733 36.8432C48.5136 36.6327 48.5863 36.3944 48.5967 36.1505C48.6019 35.9067 48.5396 35.6628 48.4148 35.4467C48.2901 35.2306 48.103 35.0533 47.8744 34.9258C47.6457 34.7983 47.3911 34.7318 47.1261 34.7263L45.328 34.7041L46.2166 33.363C46.4141 33.0527 46.4713 32.6814 46.3829 32.3323C46.2894 31.9831 46.0555 31.6783 45.7229 31.4899C45.3955 31.3015 44.9954 31.2405 44.6212 31.3181C44.2419 31.3957 43.9145 31.6118 43.7066 31.9166ZM35.5581 22.4181L35.6932 22.5345L36.7222 23.5154C36.982 23.7647 37.1327 24.0972 37.1379 24.4464C37.1431 24.7955 37.008 25.1335 36.7585 25.394C36.5091 25.6545 36.1609 25.8152 35.7868 25.8429C35.4126 25.8706 35.0436 25.7653 34.7474 25.5492L34.6123 25.4328L33.5833 24.4519C33.3235 24.2025 33.1728 23.87 33.1676 23.5209C33.1624 23.1718 33.2975 22.8337 33.547 22.5733C33.7964 22.3128 34.1446 22.1521 34.5188 22.1244C34.8929 22.0967 35.2619 22.202 35.5581 22.4181ZM56.5789 22.7728C56.8544 23.0332 57.0051 23.3823 56.9999 23.7481C56.9999 24.1139 56.8336 24.4574 56.5529 24.7124L55.498 25.6711C55.3577 25.7985 55.1966 25.9038 55.0147 25.9759C54.8328 26.0479 54.6406 26.0812 54.4431 26.0812C54.2456 26.0812 54.0533 26.0424 53.8714 25.9703C53.6895 25.8983 53.5284 25.793 53.3881 25.6655C53.253 25.5325 53.1439 25.3829 53.0711 25.2111C52.9984 25.0393 52.962 24.862 52.9672 24.6791C52.9672 24.4962 53.014 24.3189 53.0919 24.1527C53.1699 23.9864 53.2842 23.8368 53.4297 23.7093L54.4846 22.7506C54.7653 22.4957 55.1446 22.3571 55.5344 22.3627C55.9241 22.3682 56.2983 22.5178 56.5737 22.7783L56.5789 22.7728ZM45.1513 18.2174C45.541 18.2174 45.9152 18.3726 46.1906 18.6331C46.4661 18.8935 46.6168 19.2427 46.6116 19.6084L46.596 20.9828C46.596 21.3485 46.4297 21.6921 46.1491 21.947C45.8684 22.202 45.4891 22.3405 45.0993 22.335C44.7096 22.335 44.3354 22.1798 44.06 21.9193C43.7846 21.6589 43.6338 21.3097 43.639 20.944L43.6546 19.5696C43.6546 19.2039 43.8209 18.8603 44.1015 18.6054C44.3822 18.3504 44.7615 18.2119 45.1513 18.2174Z" fill="#FC0400"/>
<path d="M98.576 33.984V42.816H95.84V36.648H92.768V33.984H98.576ZM98.576 41.688C99.536 43.296 101.192 43.968 103.664 44.064C106.52 44.208 112.232 44.136 115.544 43.872C115.232 44.52 114.8 45.84 114.656 46.68C111.68 46.824 106.568 46.872 103.616 46.728C100.736 46.608 98.816 45.912 97.376 44.064C96.272 45 95.144 45.936 93.776 46.944L92.456 44.088C93.584 43.44 94.928 42.576 96.08 41.688H98.576ZM93.104 26.976L95.096 25.128C96.584 26.136 98.456 27.696 99.32 28.848L97.16 30.912C96.392 29.76 94.592 28.08 93.104 26.976ZM102.824 29.28L104.648 27.744C106.784 28.488 109.808 29.784 111.44 30.72L109.472 32.424C108.008 31.512 105.032 30.144 102.824 29.28ZM100.64 30.648H112.856V32.736H103.352V43.08H100.64V30.648ZM111.512 30.648H114.248V40.584C114.248 41.76 114.056 42.36 113.264 42.744C112.52 43.152 111.464 43.152 110.024 43.152C109.928 42.456 109.616 41.52 109.304 40.896C110.072 40.92 110.912 40.92 111.152 40.92C111.44 40.92 111.512 40.824 111.512 40.56V30.648ZM100.856 25.416H112.304V27.6H100.856V25.416ZM102.152 34.032H112.448V36.024H102.152V34.032ZM102.152 37.392H112.448V39.48H102.152V37.392ZM106.112 31.632H108.68V42.984H106.112V31.632ZM111.272 25.416H111.92L112.496 25.272L114.2 26.664C112.496 28.248 110.12 29.952 107.912 31.008C107.576 30.528 106.88 29.784 106.472 29.4C108.272 28.536 110.36 27.024 111.272 25.92V25.416ZM129.56 33.912H136.904V36.192H129.56V33.912ZM128.144 25.632H136.976V28.152H130.736V47.16H128.144V25.632ZM135.512 25.632H138.176V30.168C138.176 31.392 137.936 32.112 137 32.496C136.064 32.88 134.768 32.904 132.992 32.904C132.896 32.16 132.536 31.128 132.2 30.432C133.376 30.48 134.696 30.48 135.032 30.48C135.416 30.456 135.512 30.384 135.512 30.12V25.632ZM132.584 35.592C133.784 39.576 136.208 43.2 139.592 44.904C138.968 45.432 138.128 46.464 137.696 47.184C134.144 45.048 131.792 40.944 130.424 36.144L132.584 35.592ZM136.064 33.912H136.568L137.024 33.792L138.752 34.416C137.888 39.888 135.68 44.544 132.08 47.208C131.648 46.56 130.808 45.72 130.184 45.24C133.472 42.96 135.464 38.808 136.064 34.464V33.912ZM117.584 26.76H126.8V29.136H117.584V26.76ZM117.416 40.296H127.064V42.72H117.416V40.296ZM116.72 30.792H127.688V33.216H116.72V30.792ZM117.2 36H127.328V38.424H117.2V36ZM120.992 24.696H123.656V31.704H120.992V24.696ZM120.992 37.008H123.656V47.088H120.992V37.008ZM124.256 32.856L126.632 33.432C126.152 34.536 125.744 35.616 125.36 36.36L123.32 35.784C123.656 34.968 124.064 33.72 124.256 32.856ZM118.232 33.432L120.368 32.904C120.824 33.792 121.256 35.04 121.352 35.784L119.096 36.408C119 35.64 118.64 34.392 118.232 33.432ZM155.672 25.656C155.6 26.064 155.528 27.336 155.504 27.72C155.432 29.304 155.48 34.2 155.504 36.12L152.504 35.112C152.504 33.624 152.504 29.016 152.408 27.744C152.336 26.784 152.24 25.968 152.192 25.656H155.672ZM142.088 28.656C145.664 28.656 152 28.464 155 28.464C157.448 28.464 161.096 28.44 162.44 28.464L162.392 31.296C160.904 31.224 158.456 31.152 154.928 31.152C150.56 31.152 145.784 31.344 142.16 31.536L142.088 28.656ZM155.096 35.76C155.096 39.672 153.656 41.616 150.896 41.616C149.048 41.616 146.744 40.152 146.744 37.224C146.744 34.512 148.952 32.736 151.544 32.736C154.712 32.736 156.368 35.064 156.368 38.04C156.368 41.184 154.52 45.144 148.664 46.8L146.12 44.256C150.2 43.368 153.392 41.76 153.392 37.56C153.392 36 152.552 35.256 151.496 35.256C150.56 35.256 149.624 35.904 149.624 37.176C149.624 38.256 150.512 38.952 151.496 38.952C152.624 38.952 153.608 37.992 152.84 35.136L155.096 35.76ZM169.28 26.736C169.952 26.808 170.768 26.856 171.44 26.856C172.736 26.856 177.848 26.736 179.216 26.616C180.224 26.544 180.776 26.448 181.064 26.352L182.6 28.512C182.048 28.872 181.472 29.208 180.944 29.616C179.648 30.528 177.128 32.64 175.592 33.84C176.408 33.624 177.128 33.576 177.872 33.576C181.952 33.576 185.048 36.12 185.048 39.6C185.048 43.392 182.168 46.392 176.36 46.392C173.024 46.392 170.504 44.88 170.504 42.456C170.504 40.512 172.28 38.736 174.824 38.736C178.112 38.736 179.936 40.944 180.008 43.584L177.2 43.944C177.152 42.216 176.24 41.016 174.824 41.016C173.936 41.016 173.336 41.568 173.336 42.192C173.336 43.08 174.32 43.68 175.784 43.68C179.84 43.68 181.904 42.144 181.904 39.576C181.904 37.392 179.744 35.928 176.936 35.928C173.24 35.928 170.864 37.896 168.296 40.8L166.112 38.544C167.816 37.2 170.72 34.752 172.112 33.576C173.456 32.472 175.976 30.456 177.152 29.4C175.928 29.448 172.616 29.568 171.32 29.664C170.672 29.712 169.928 29.76 169.376 29.856L169.28 26.736Z" fill="white"/>
</svg>
