<svg width="35" height="25" viewBox="0 0 35 25" fill="none" xmlns="http://www.w3.org/2000/svg">
<path d="M17.7614 0.457275H17.9486C19.6781 0.463664 28.4411 0.527547 30.8039 1.17063C31.5182 1.3669 32.1691 1.74946 32.6915 2.28008C33.2139 2.8107 33.5896 3.4708 33.781 4.19442C33.9935 5.0036 34.1429 6.0747 34.2439 7.17987L34.2649 7.40133L34.3112 7.95498L34.3281 8.17644C34.4648 10.1227 34.4816 11.9455 34.4837 12.3437V12.5034C34.4816 12.9165 34.4627 14.8628 34.3112 16.89L34.2944 17.1136L34.2755 17.3351C34.1703 18.5531 34.0146 19.7626 33.781 20.6527C33.5896 21.3763 33.2139 22.0365 32.6915 22.5671C32.1691 23.0977 31.5182 23.4803 30.8039 23.6765C28.3633 24.3409 19.0869 24.3877 17.8013 24.3899H17.5026C16.8524 24.3899 14.1636 24.3771 11.3442 24.2791L10.9866 24.2664L10.8035 24.2579L10.4437 24.2429L10.084 24.228C7.74855 24.1237 5.52465 23.9555 4.50001 23.6744C3.78598 23.4783 3.13527 23.0961 2.61286 22.5658C2.09044 22.0356 1.71461 21.376 1.52289 20.6527C1.28935 19.7648 1.13365 18.5531 1.02846 17.3351L1.01162 17.1115L0.994792 16.89C0.890357 15.4472 0.832818 14.0012 0.822266 12.5545L0.822266 12.2926C0.826474 11.8348 0.843305 10.2526 0.95692 8.5065L0.971648 8.28717L0.97796 8.17644L0.994792 7.95498L1.04108 7.40133L1.06212 7.17987C1.16311 6.0747 1.31249 5.00147 1.52499 4.19442C1.71639 3.4708 2.09208 2.8107 2.61452 2.28008C3.13695 1.74946 3.78783 1.3669 4.50212 1.17063C5.52675 0.893808 7.75065 0.723453 10.0861 0.616982L10.4437 0.602076L10.8056 0.5893L10.9866 0.582912L11.3463 0.568006C13.3487 0.502853 15.3519 0.466649 17.3553 0.459405L17.7614 0.457275ZM14.2877 7.29273V17.5523L23.0339 12.4246L14.2877 7.29273Z" fill="white"/>
</svg>
