<svg width="256" height="95" viewBox="0 0 256 95" fill="none" xmlns="http://www.w3.org/2000/svg">
<path d="M223.065 94.9999H32.9347C14.7464 94.9999 0 75.4938 0 51.429C0 27.3701 14.7464 7.86401 32.9347 7.86401H223.065C241.254 7.86401 256 27.3701 256 51.429C256 75.488 241.254 94.9941 223.065 94.9941V94.9999Z" fill="#CCCCCC"/>
<path d="M223.065 87.1359H32.9347C14.7464 87.1359 0 67.6298 0 43.565C0 19.5061 14.7464 0 32.9347 0H223.065C241.254 0 256 19.5061 256 43.565C256 67.6239 241.254 87.1301 223.065 87.1301V87.1359Z" fill="#022F6F"/>
<path d="M44.5 67.4097C60.2401 67.4097 73 54.47 73 38.5082C73 22.5463 60.2401 9.60669 44.5 9.60669C28.7599 9.60669 16 22.5463 16 38.5082C16 54.47 28.7599 67.4097 44.5 67.4097Z" fill="white"/>
<mask id="mask0_723_8" style="mask-type:luminance" maskUnits="userSpaceOnUse" x="30" y="23" width="28" height="28">
<path d="M34.4583 23L53.9098 25.5686C55.8749 25.5686 57.5701 27.1608 57.5701 29.2024L56.5011 46.6501C56.5011 48.5974 54.8977 50.2839 52.8408 50.2839L33.7511 48.0704C31.786 48.0704 30.0908 46.4782 30.0908 44.4366L30.8034 26.6338C30.8034 24.5978 32.4068 23 34.4637 23H34.4583Z" fill="white"/>
</mask>
<g mask="url(#mask0_723_8)">
<path d="M16.2536 30.0845H66.2183L60.0638 57.6291H10.0991L16.2536 30.0845Z" fill="#FBA905"/>
<path d="M67.9999 36.2868L59.524 31.8541L25.8039 36.2868L23.6606 21.2246L65.1494 18.656L67.9999 36.2868Z" fill="#FC0400"/>
<path d="M62.65 33.8956L61.3111 33.7181C57.2081 33.1855 53.0134 33.9844 49.4448 36.0204L48.1978 36.7305C46.6807 37.6182 44.9855 38.234 43.2904 38.6778L39.9 39.4767C37.8485 39.9205 34.8144 40.1868 32.6712 39.9205L26.3385 39.1216C25.6259 39.0328 24.9133 38.9441 24.1953 38.7666L19.9141 37.7901C17.15 37.1688 14.5586 35.9316 12.329 34.1564L9.29492 31.7653L10.9901 32.1203C11.7945 32.2978 12.5071 32.4754 13.3115 32.6529L14.1159 32.9192C15.5412 33.363 17.0582 33.6293 18.667 33.7181L28.3036 34.3394L33.0329 34.7833C35.5325 35.0495 37.9403 34.7833 40.3481 34.0731L46.4162 32.3034L48.6458 31.682C53.2833 30.3561 58.3688 30.8832 62.6554 33.0967V33.8956H62.65Z" fill="white"/>
<path d="M50.7835 36.1981L39.9862 42.4006C39.8944 42.4006 39.8944 42.4893 39.808 42.4893C38.7391 42.8444 37.8429 43.1994 36.9521 43.2882C34.2744 43.6433 31.5103 43.6433 28.7461 43.2882H28.6544C28.0281 43.2882 27.4073 43.1994 26.781 43.1107L20.5348 40.5421L20.8047 43.2882H10.0991V42.1343H20.8047L20.4484 39.3881L26.8728 41.9567C27.4073 42.0455 27.9417 42.1343 28.568 42.1343C31.2457 42.4893 34.0098 42.5781 36.774 42.223H36.8657C37.9347 42.1343 39.009 41.868 39.9862 41.4241L50.3354 35.2217C51.2262 34.6892 52.2088 33.6295 53.1913 33.6295L57.4725 32.9194L62.558 33.3632C60.5065 31.416 57.0244 33.0969 53.0995 34.8667" fill="white"/>
</g>
</svg>
